<?xml version="1.0" standalone="no"?>
<!DOCTYPE svg PUBLIC "-//W3C//DTD SVG 20010904//EN"
 "http://www.w3.org/TR/2001/REC-SVG-20010904/DTD/svg10.dtd">
<svg version="1.0" xmlns="http://www.w3.org/2000/svg"
 width="512.000000pt" height="512.000000pt" viewBox="0 0 512.000000 512.000000"
 preserveAspectRatio="xMidYMid meet">

<g transform="translate(0.000000,512.000000) scale(0.100000,-0.100000)"
fill="#000000" stroke="none">
<path d="M4580 4790 c-14 -6 -242 -228 -507 -492 -265 -265 -484 -480 -486
-478 -2 3 -21 32 -43 65 -49 76 -189 222 -274 286 -36 28 -119 77 -185 110
-400 198 -860 158 -1232 -107 -329 -235 -527 -676 -484 -1078 40 -364 225
-677 519 -876 l64 -43 -115 -115 -115 -115 -78 59 c-109 82 -191 161 -265 254
-34 44 -67 80 -72 80 -22 0 -246 -180 -345 -278 -229 -226 -401 -482 -516
-769 -51 -127 -126 -380 -126 -424 0 -68 59 -136 134 -153 l28 -7 -75 -78
c-57 -58 -77 -86 -82 -114 -11 -60 3 -107 44 -148 41 -41 88 -55 148 -44 34 6
259 228 2151 2118 1554 1554 2115 2121 2123 2146 22 67 -2 139 -63 184 -31 23
-111 32 -148 17z"/>
<path d="M3220 2545 c-283 -283 -512 -516 -509 -519 10 -10 185 32 275 66 363
137 644 453 734 828 25 103 31 140 22 140 -4 0 -239 -232 -522 -515z"/>
<path d="M3745 2265 c-32 -42 -98 -113 -147 -159 -299 -282 -712 -435 -1113
-412 l-110 6 -488 -488 c-268 -268 -487 -490 -487 -495 0 -4 739 -6 1643 -5
1636 3 1642 3 1677 24 42 24 80 86 80 131 0 36 -56 239 -102 363 -122 336
-360 685 -626 914 -107 93 -243 195 -258 196 -6 0 -37 -34 -69 -75z"/>
</g>
</svg>
