<?xml version="1.0"?><svg id="Layer_1" style="enable-background:new 0 0 128 128;" version="1.1" viewBox="0 0 128 128" xml:space="preserve" xmlns="http://www.w3.org/2000/svg" xmlns:xlink="http://www.w3.org/1999/xlink"><g><g><path d="M36,117c-1.66,0-3-1.34-3-3v-6c0-2.76-2.24-5-5-5H12c-2.76,0-5,2.24-5,5v6c0,1.66-1.34,3-3,3s-3-1.34-3-3v-6    c0-6.07,4.93-11,11-11h16c6.07,0,11,4.93,11,11v6C39,115.66,37.66,117,36,117z"/></g><g><path d="M20,91c-7.17,0-13-5.83-13-13s5.83-13,13-13s13,5.83,13,13S27.17,91,20,91z M20,71c-3.86,0-7,3.14-7,7s3.14,7,7,7    s7-3.14,7-7S23.86,71,20,71z"/></g><g><path d="M80,117c-1.66,0-3-1.34-3-3v-6c0-2.76-2.24-5-5-5H56c-2.76,0-5,2.24-5,5v6c0,1.66-1.34,3-3,3s-3-1.34-3-3v-6    c0-6.07,4.93-11,11-11h16c6.07,0,11,4.93,11,11v6C83,115.66,81.66,117,80,117z"/></g><g><path d="M64,91c-7.17,0-13-5.83-13-13s5.83-13,13-13s13,5.83,13,13S71.17,91,64,91z M64,71c-3.86,0-7,3.14-7,7s3.14,7,7,7    s7-3.14,7-7S67.86,71,64,71z"/></g><g><path d="M124,117c-1.66,0-3-1.34-3-3v-6c0-2.76-2.24-5-5-5h-16c-2.76,0-5,2.24-5,5v6c0,1.66-1.34,3-3,3s-3-1.34-3-3v-6    c0-6.07,4.93-11,11-11h16c6.07,0,11,4.93,11,11v6C127,115.66,125.66,117,124,117z"/></g><g><path d="M108,91c-7.17,0-13-5.83-13-13s5.83-13,13-13s13,5.83,13,13S115.17,91,108,91z M108,71c-3.86,0-7,3.14-7,7s3.14,7,7,7    s7-3.14,7-7S111.86,71,108,71z"/></g><g><path d="M42,59c-7.17,0-13-5.83-13-13s5.83-13,13-13s13,5.83,13,13S49.17,59,42,59z M42,39c-3.86,0-7,3.14-7,7s3.14,7,7,7    s7-3.14,7-7S45.86,39,42,39z"/></g><g><path d="M86,59c-7.17,0-13-5.83-13-13s5.83-13,13-13s13,5.83,13,13S93.17,59,86,59z M86,39c-3.86,0-7,3.14-7,7s3.14,7,7,7    s7-3.14,7-7S89.86,39,86,39z"/></g><g><path d="M64,27c-7.17,0-13-5.83-13-13S56.83,1,64,1s13,5.83,13,13S71.17,27,64,27z M64,7c-3.86,0-7,3.14-7,7s3.14,7,7,7    s7-3.14,7-7S67.86,7,64,7z"/></g></g></svg>