<?xml version="1.0" standalone="no"?>
<!DOCTYPE svg PUBLIC "-//W3C//DTD SVG 20010904//EN"
 "http://www.w3.org/TR/2001/REC-SVG-20010904/DTD/svg10.dtd">
<svg version="1.0" xmlns="http://www.w3.org/2000/svg"
 width="512.000000pt" height="512.000000pt" viewBox="0 0 512.000000 512.000000"
 preserveAspectRatio="xMidYMid meet">

<g transform="translate(0.000000,512.000000) scale(0.100000,-0.100000)"
fill="#000000" stroke="none">
<path d="M721 4949 c-84 -16 -188 -74 -254 -141 -125 -126 -147 -201 -147
-489 l0 -208 26 -20 c16 -13 41 -21 64 -21 58 0 187 -37 245 -70 117 -67 197
-166 242 -299 28 -82 31 -220 7 -302 -61 -207 -234 -354 -449 -381 -143 -18
-135 0 -135 -308 0 -279 7 -329 58 -424 41 -77 145 -177 222 -213 99 -47 148
-53 415 -53 l245 0 0 -212 c1 -367 40 -562 166 -811 74 -146 159 -262 284
-387 274 -275 612 -426 998 -447 678 -36 1301 391 1517 1039 61 187 67 227 72
533 l5 281 75 12 c108 17 195 62 273 141 73 74 112 139 135 226 23 89 23 2101
0 2190 -41 154 -163 287 -323 348 l-57 22 -1820 1 c-1013 1 -1840 -2 -1864 -7z
m2719 -398 c0 -137 3 -257 6 -266 10 -24 60 -46 89 -39 14 3 34 18 45 31 19
24 20 42 20 275 l0 249 393 -3 392 -3 57 -28 c73 -36 150 -119 177 -193 21
-55 21 -63 19 -1097 l-3 -1042 -26 -55 c-49 -103 -153 -181 -262 -196 l-47 -7
0 285 c0 223 -3 296 -15 343 -58 221 -277 386 -510 384 -44 0 -142 -21 -200
-43 -11 -5 -15 -4 -9 1 31 23 34 56 34 348 l0 297 -29 29 c-16 16 -37 29 -46
29 -24 0 -72 -27 -79 -45 -3 -9 -6 -154 -6 -321 l0 -305 26 -26 c19 -19 33
-24 55 -21 16 3 29 3 29 2 0 -1 -20 -14 -43 -28 -56 -32 -144 -127 -179 -192
-52 -96 -58 -143 -58 -451 l0 -283 -1267 2 -1268 3 -56 26 c-69 33 -129 91
-166 161 -28 53 -28 55 -31 268 l-3 216 73 17 c127 29 231 88 328 186 141 142
200 285 200 485 0 193 -60 337 -200 477 -110 111 -228 175 -353 194 l-47 7 0
149 c0 127 3 156 21 206 24 61 88 138 147 175 77 48 49 47 1460 47 l1332 1 0
-249z m441 -1537 c114 -33 198 -111 239 -222 21 -54 21 -67 17 -686 -3 -559
-5 -640 -21 -706 -64 -273 -182 -487 -376 -680 -119 -119 -228 -196 -381 -269
-669 -319 -1481 -29 -1803 644 -102 212 -127 336 -133 668 l-5 257 756 0 756
0 -56 -67 c-97 -118 -166 -287 -181 -447 -5 -60 -4 -66 20 -90 33 -33 79 -34
111 -3 17 17 25 39 30 90 26 257 195 464 414 507 106 21 132 31 144 53 10 16
14 114 18 362 l5 340 27 57 c75 160 251 241 419 192z"/>
<path d="M1613 4316 c-158 -50 -256 -183 -256 -346 0 -143 72 -259 201 -322
l67 -33 573 -3 c503 -2 581 -1 629 13 102 30 183 99 231 195 24 48 27 67 27
150 0 84 -3 102 -28 152 -36 74 -102 139 -175 175 l-57 28 -585 2 c-465 2
-594 -1 -627 -11z m1202 -165 c140 -65 155 -255 26 -346 l-43 -30 -556 -3
c-625 -3 -610 -5 -676 68 -89 99 -61 246 58 305 l50 25 550 0 c514 0 554 -2
591 -19z"/>
<path d="M1615 3225 c-16 -15 -25 -36 -25 -55 0 -19 9 -40 25 -55 l24 -25 583
0 c443 1 587 4 599 13 45 34 46 92 2 127 -25 19 -42 20 -605 20 l-579 0 -24
-25z"/>
<path d="M1635 2798 c-51 -27 -61 -89 -22 -126 l23 -22 583 0 c354 0 589 4
600 10 10 5 24 23 31 39 15 37 -2 79 -40 98 -33 17 -1144 18 -1175 1z"/>
</g>
</svg>
