<?xml version="1.0" standalone="no"?>
<!DOCTYPE svg PUBLIC "-//W3C//DTD SVG 20010904//EN"
 "http://www.w3.org/TR/2001/REC-SVG-20010904/DTD/svg10.dtd">
<svg version="1.0" xmlns="http://www.w3.org/2000/svg"
 width="512.000000pt" height="512.000000pt" viewBox="0 0 512.000000 512.000000"
 preserveAspectRatio="xMidYMid meet">

<g transform="translate(0.000000,512.000000) scale(0.100000,-0.100000)"
fill="#000000" stroke="none">
<path d="M2216 5105 c-79 -28 -145 -119 -146 -200 0 -71 19 -117 70 -166 103
-100 257 -85 336 33 121 180 -56 406 -260 333z"/>
<path d="M1048 4701 l-236 -239 -64 64 c-73 73 -98 79 -147 38 -24 -20 -31
-34 -31 -62 0 -32 10 -46 103 -139 84 -84 108 -103 133 -103 25 0 72 42 317
283 263 258 288 285 287 315 0 46 -38 82 -87 82 -36 0 -48 -9 -275 -239z"/>
<path d="M703 4905 c-276 -60 -458 -350 -388 -618 23 -90 62 -156 134 -228
104 -104 221 -152 366 -151 143 0 267 54 363 156 93 100 142 215 142 332 0 42
-5 56 -26 78 -33 33 -74 34 -110 3 -22 -19 -29 -36 -35 -91 -11 -86 -39 -150
-92 -204 -136 -141 -365 -139 -496 3 -67 73 -86 124 -86 230 0 76 4 98 26 145
31 65 96 132 156 161 23 11 76 26 117 33 86 16 91 18 111 57 13 25 14 34 3 56
-25 53 -73 62 -185 38z"/>
<path d="M2163 4426 c-240 -46 -384 -220 -387 -470 l-1 -78 47 -42 c83 -76
249 -116 476 -116 245 0 430 53 496 143 17 23 20 40 18 95 -10 234 -135 404
-337 457 -86 22 -227 27 -312 11z"/>
<path d="M3315 4345 c-42 -41 -30 -102 25 -130 25 -13 103 -15 534 -15 542 0
545 0 572 51 20 39 18 53 -12 88 l-26 31 -534 0 -535 0 -24 -25z"/>
<path d="M3325 4015 c-33 -32 -34 -93 -4 -121 20 -18 47 -19 736 -19 l715 0
24 28 c32 37 31 77 -2 111 l-27 26 -709 0 -709 0 -24 -25z"/>
<path d="M2210 3249 c-79 -32 -140 -123 -140 -210 0 -64 43 -146 98 -184 35
-24 55 -30 111 -33 81 -5 128 15 183 76 96 106 60 275 -72 342 -43 22 -136 26
-180 9z"/>
<path d="M1038 2843 l-237 -237 -60 57 c-60 57 -90 68 -136 51 -24 -10 -48
-62 -40 -92 3 -14 47 -68 97 -119 98 -99 132 -116 186 -94 16 7 148 132 295
279 241 242 267 271 267 301 0 47 -46 91 -96 91 -36 0 -49 -11 -276 -237z"/>
<path d="M681 3044 c-325 -87 -481 -465 -310 -750 41 -68 136 -159 205 -196
201 -109 466 -60 618 114 78 89 126 209 126 316 0 66 -29 102 -83 102 -51 0
-79 -36 -88 -115 -15 -124 -82 -220 -188 -272 -49 -25 -67 -28 -151 -28 -79 0
-103 4 -141 23 -71 35 -122 84 -159 154 -32 58 -35 70 -35 153 0 76 4 98 26
145 14 31 41 72 58 93 42 47 141 96 211 104 71 8 105 26 118 61 12 35 -6 85
-37 101 -27 15 -105 13 -170 -5z"/>
<path d="M2142 2555 c-124 -27 -218 -87 -283 -181 -38 -55 -76 -172 -84 -260
-8 -83 5 -117 59 -159 200 -152 829 -130 954 33 22 29 25 42 24 101 -5 192
-100 356 -245 425 -115 54 -288 71 -425 41z"/>
<path d="M3350 2503 c-61 -22 -79 -95 -35 -138 l24 -25 535 0 534 0 26 31 c30
35 32 49 12 88 -27 51 -29 51 -574 50 -279 0 -514 -3 -522 -6z"/>
<path d="M3354 2170 c-55 -22 -70 -95 -29 -135 l24 -25 711 0 711 0 24 25 c27
26 32 63 14 97 -26 48 -32 48 -756 47 -373 0 -688 -4 -699 -9z"/>
<path d="M2226 1386 c-123 -46 -186 -174 -142 -290 20 -53 88 -119 141 -136
151 -50 313 87 289 245 -19 133 -168 225 -288 181z"/>
<path d="M1290 1213 c-8 -3 -122 -111 -252 -241 l-238 -237 -60 60 c-50 50
-65 59 -95 59 -43 0 -72 -26 -81 -73 -7 -33 -4 -37 97 -133 57 -55 114 -104
127 -109 15 -6 34 -4 56 5 41 17 555 532 563 564 15 61 -57 126 -117 105z"/>
<path d="M650 1167 c-208 -71 -350 -266 -350 -482 1 -381 392 -625 737 -459
162 77 283 264 283 437 0 40 -5 53 -29 78 -33 33 -50 35 -90 14 -33 -16 -47
-49 -55 -123 -11 -109 -91 -214 -202 -264 -73 -33 -199 -32 -274 3 -72 34
-135 97 -168 167 -23 49 -27 71 -27 147 0 78 4 97 28 146 52 106 150 174 275
189 49 6 71 14 90 34 33 32 33 78 2 111 -20 22 -32 25 -89 25 -41 0 -90 -9
-131 -23z"/>
<path d="M2120 694 c-185 -49 -298 -173 -335 -367 -30 -157 -14 -199 95 -255
97 -49 224 -72 406 -72 292 0 473 58 520 166 13 32 6 133 -17 217 -41 154
-161 269 -325 311 -79 20 -268 20 -344 0z"/>
<path d="M3316 625 c-36 -33 -35 -78 3 -116 l29 -29 527 0 527 0 29 29 c38 38
38 74 0 112 l-29 29 -530 0 -529 0 -27 -25z"/>
<path d="M3331 284 c-41 -34 -43 -84 -5 -119 l27 -25 704 0 705 0 29 29 c45
45 37 100 -18 129 -16 9 -207 12 -717 12 l-694 0 -31 -26z"/>
</g>
</svg>
